<svg
  width="16"
  height="16"
  viewBox="0 0 16 16"
  fill="none"
  xmlns="http://www.w3.org/2000/svg"
>
  <path
    d="M8.35925 2C5.35409 2 3 3.14873 3 4.61528V11.7485C3 13.215 5.35412 14.364 8.35925 14.364C11.3645 14.364 13.7188 13.215 13.7188 11.7485V4.61528C13.7188 3.14873 11.3645 2 8.35925 2ZM13.2242 11.7485C13.2242 12.8982 10.9963 13.8694 8.35925 13.8694C5.72237 13.8694 3.49455 12.8982 3.49455 11.7485V10.5089C4.33571 11.4051 6.17262 12.0148 8.35925 12.0148C10.546 12.0148 12.383 11.4051 13.2242 10.5088V11.7485ZM13.2242 9.39956C13.2242 10.549 10.9963 11.5203 8.35925 11.5203C5.72237 11.5203 3.49455 10.549 3.49455 9.39956V8.15829C4.33571 9.05457 6.17262 9.66424 8.35925 9.66424C10.546 9.66424 12.383 9.05457 13.2242 8.15826V9.39956ZM13.2242 7.04894C13.2242 8.19839 10.9963 9.16964 8.35925 9.16964C5.72237 9.16964 3.49455 8.19839 3.49455 7.04894V5.72458C4.33571 6.62086 6.17262 7.23054 8.35925 7.23054C10.546 7.23054 12.383 6.62086 13.2242 5.72456V7.04894ZM8.35925 6.73599C5.72237 6.73599 3.49455 5.76474 3.49455 4.61528C3.49455 3.46582 5.72237 2.49458 8.35925 2.49458C10.9963 2.49458 13.2242 3.46582 13.2242 4.61528C13.2242 5.76474 10.9963 6.73599 8.35925 6.73599Z"
    fill="black"
  />
</svg>
